<?xml version="1.0" encoding="UTF-8" standalone="no"?>
<!DOCTYPE svg PUBLIC "-//W3C//DTD SVG 1.1//EN" "http://www.w3.org/Graphics/SVG/1.1/DTD/svg11.dtd">
<svg width="100%" height="100%" viewBox="0 0 22 22" version="1.1" xmlns="http://www.w3.org/2000/svg" xmlns:xlink="http://www.w3.org/1999/xlink" xml:space="preserve" xmlns:serif="http://www.serif.com/" style="fill-rule:evenodd;clip-rule:evenodd;stroke-linejoin:round;stroke-miterlimit:2;">
    <g transform="matrix(1,0,0,1,-242,0)">
        <g id="Blog" transform="matrix(1,0,0,1,-0.3,0)">
            <rect x="242.3" y="0" width="21.3" height="21.333" style="fill:none;"/>
            <clipPath id="_clip1">
                <rect x="242.3" y="0" width="21.3" height="21.333"/>
            </clipPath>
            <g clip-path="url(#_clip1)">
                <g id="Today-apps" serif:id="Today apps" transform="matrix(0.969695,9.56237e-32,-1.1953e-32,0.969695,242.283,-48.4848)">
                    <path d="M18.615,69.579L18.615,52.421C18.615,51.844 18.143,51.375 17.562,51.375L4.438,51.375C3.857,51.375 3.385,51.844 3.385,52.421L3.385,69.579C3.385,70.156 3.857,70.625 4.438,70.625L17.562,70.625C18.143,70.625 18.615,70.156 18.615,69.579ZM17.562,50C18.906,50 20,51.086 20,52.421L20,69.579C20,70.914 18.906,72 17.562,72L4.438,72C3.094,72 2,70.914 2,69.579L2,52.421C2,51.086 3.094,50 4.438,50L17.562,50ZM4.769,69.049L17.231,69.049L17.231,56.674L4.769,56.674L4.769,69.049ZM5.462,54.355L11,54.355C11.383,54.355 11.692,54.048 11.692,53.668C11.692,53.288 11.383,52.98 11,52.98L5.462,52.98C5.079,52.98 4.769,53.288 4.769,53.668C4.769,54.048 5.079,54.355 5.462,54.355Z"/>
                </g>
            </g>
        </g>
    </g>
</svg>
